<svg class="svg-icon" viewBox="0 0 600 530" xmlns="http://www.w3.org/2000/svg">
  <path d="M300 255.3C272.7 213.6 198.1 115.6 140.3 74.8 85.2 35.5 63.5 42.3 49.7 48.6 33.7 56 30.7 81.1 30.7 95.6c0 14.5 8 119.2 13.2 136.6 17.3 57.7 78.7 77.2 135.2 71.1-82.9 12.5-98.8 85.5-55.4 135.2 80 90.6 170.6-19.4 176.3-29.4 5.7 10 96.3 120 176.3 29.4 43.4-49.7 27.5-122.7-55.4-135.2 56.5 6.1 117.9-13.4 135.2-71.1 5.2-17.4 13.2-122.1 13.2-136.6 0-14.5-3-39.6-19-47-13.8-6.3-35.5-13.1-90.6 26.2-57.8 40.8-132.4 138.8-159.7 180.5z"
        fill="#6c7378"/>
</svg>
